<svg id="LOGO" xmlns="http://www.w3.org/2000/svg" width="199.67" height="42.22" viewBox="0 0 199.67 42.22"><defs><style>.cls-1{isolation:isolate;}.cls-2{fill:#fff;}.cls-3{fill:#deb666;}</style></defs><title>logo-white</title><g class="cls-1"><path class="cls-2" d="M1.17,2.1Q1.63,2,2.13,2t1,0q.5,0,1,0t1,.12V13.54H16.93V2.1A9.2,9.2,0,0,1,17.86,2q.5,0,1,0t1,0q.52,0,1,.12V29.88a9.24,9.24,0,0,1-.93.12c-.33,0-.68,0-1,0s-.68,0-1,0a9.17,9.17,0,0,1-.95-.12V17H5.11V29.88c-.31.05-.62.09-.95.12s-.66,0-1,0-.68,0-1,0a9.16,9.16,0,0,1-.95-.12Z" transform="translate(-0.67 -0.91)"/><path class="cls-2" d="M35.4,30.35a9.71,9.71,0,0,1-4.06-.79,8,8,0,0,1-2.9-2.18,9.08,9.08,0,0,1-1.72-3.28,14.37,14.37,0,0,1-.56-4.1,14.38,14.38,0,0,1,.56-4.1,9.08,9.08,0,0,1,1.72-3.28,8.26,8.26,0,0,1,2.9-2.2A9.5,9.5,0,0,1,35.4,9.6a9.5,9.5,0,0,1,4.06.81,8.26,8.26,0,0,1,2.9,2.2,9.09,9.09,0,0,1,1.72,3.28,14.38,14.38,0,0,1,.56,4.1,14.37,14.37,0,0,1-.56,4.1,9.09,9.09,0,0,1-1.72,3.28,8,8,0,0,1-2.9,2.18A9.72,9.72,0,0,1,35.4,30.35Zm0-3.05a4.39,4.39,0,0,0,3.94-1.93A9.68,9.68,0,0,0,40.62,20a9.59,9.59,0,0,0-1.28-5.35,4.4,4.4,0,0,0-3.94-1.91,4.36,4.36,0,0,0-3.92,1.91A9.7,9.7,0,0,0,30.22,20a9.8,9.8,0,0,0,1.26,5.37A4.34,4.34,0,0,0,35.4,27.3Z" transform="translate(-0.67 -0.91)"/><path class="cls-2" d="M50.39,13.12h-3l-.15-.54,6.65-7.42h.31v4.91h5a6.45,6.45,0,0,1,.15,1.47c0,.28,0,.55,0,.81s-.06.52-.12.77h-5v9a19.54,19.54,0,0,0,.14,2.59,3.82,3.82,0,0,0,.46,1.49,1.58,1.58,0,0,0,.89.7,4.83,4.83,0,0,0,1.41.17,7.52,7.52,0,0,0,1.24-.1q.58-.1,1-.21a6.12,6.12,0,0,1,.33,1.58q.06.81.06,1.43a12.7,12.7,0,0,1-1.62.29,16.35,16.35,0,0,1-1.82.1A6.43,6.43,0,0,1,52,28.84q-1.56-1.35-1.56-4.48Z" transform="translate(-0.67 -0.91)"/><path class="cls-2" d="M66.35,20.92A6.47,6.47,0,0,0,68,25.67a6.67,6.67,0,0,0,4.73,1.51,14.2,14.2,0,0,0,5.22-1,5.82,5.82,0,0,1,.5,1.41,9.2,9.2,0,0,1,.23,1.64,13,13,0,0,1-2.8.81,19.5,19.5,0,0,1-3.38.27,12.75,12.75,0,0,1-4.64-.75,8.15,8.15,0,0,1-5-5.37,13.87,13.87,0,0,1-.58-4.12A14.58,14.58,0,0,1,62.85,16a9.26,9.26,0,0,1,1.72-3.32,8.3,8.3,0,0,1,2.92-2.24,9.64,9.64,0,0,1,4.15-.83,8.68,8.68,0,0,1,3.59.7,7.31,7.31,0,0,1,2.59,1.91,8.31,8.31,0,0,1,1.58,2.9A11.87,11.87,0,0,1,80,18.76q0,.54,0,1.14t-.08,1Zm9.81-2.86A7.29,7.29,0,0,0,75.87,16,5.23,5.23,0,0,0,75,14.27a4.14,4.14,0,0,0-1.43-1.18,4.5,4.5,0,0,0-2.07-.44,4.55,4.55,0,0,0-3.61,1.43,7,7,0,0,0-1.53,4Z" transform="translate(-0.67 -0.91)"/><path class="cls-2" d="M84.9,1.56a9.17,9.17,0,0,1,.95-.12q.52,0,.95,0t.95,0a9.19,9.19,0,0,1,.95.12V23.9a5.92,5.92,0,0,0,.19,1.7,2.28,2.28,0,0,0,.52.95,1.52,1.52,0,0,0,.77.42,4.38,4.38,0,0,0,.95.1c.23,0,.5,0,.79,0a5,5,0,0,0,.75-.12A11.78,11.78,0,0,1,93,29.85a5.08,5.08,0,0,1-1.31.25q-.77.06-1.43.06a7.73,7.73,0,0,1-2.09-.27,4.47,4.47,0,0,1-1.7-.89,4.18,4.18,0,0,1-1.16-1.66,6.88,6.88,0,0,1-.43-2.59Z" transform="translate(-0.67 -0.91)"/><path class="cls-2" d="M103.48,29.54l14-24H105.22a5.87,5.87,0,0,1-.12-.81c0-.31,0-.6,0-.89s0-.58,0-.89a7.2,7.2,0,0,1,.12-.85h18l.27.35-14,24h13a6.25,6.25,0,0,1,.12.83c0,.32,0,.63,0,.91s0,.58,0,.89a6.2,6.2,0,0,1-.12.81H103.71Z" transform="translate(-0.67 -0.91)"/><path class="cls-2" d="M137.56,16.82a3.77,3.77,0,0,0-1.16-3.17,5.45,5.45,0,0,0-3.36-.89,14.27,14.27,0,0,0-2.53.21,19.25,19.25,0,0,0-2.3.56,6,6,0,0,1-.73-3.05,17.87,17.87,0,0,1,2.9-.66,21.14,21.14,0,0,1,3.05-.23,8.67,8.67,0,0,1,5.87,1.76q2,1.76,2,5.62v12.4Q140,29.69,138,30a23.51,23.51,0,0,1-3.94.33,15.38,15.38,0,0,1-3.42-.35,7,7,0,0,1-2.59-1.12,5.2,5.2,0,0,1-1.64-2,6.62,6.62,0,0,1-.58-2.9,5.91,5.91,0,0,1,2.51-5A8.18,8.18,0,0,1,131,17.77a12.14,12.14,0,0,1,3.17-.41q1.24,0,2,.06c.53,0,1,.08,1.33.14Zm0,3.75q-.58-.08-1.47-.15c-.59-.05-1.09-.08-1.51-.08a6.29,6.29,0,0,0-3.65.89,3.09,3.09,0,0,0-1.26,2.7,3.31,3.31,0,0,0,.43,1.82,2.92,2.92,0,0,0,1.06,1,3.67,3.67,0,0,0,1.41.42,14.43,14.43,0,0,0,1.47.08,18.09,18.09,0,0,0,1.83-.1,11,11,0,0,0,1.68-.29Z" transform="translate(-0.67 -0.91)"/><path class="cls-2" d="M147.07,10.06q.42-.08.83-.12c.27,0,.55,0,.83,0a7.71,7.71,0,0,1,.79,0l.79.12q.12.58.23,1.56a14.32,14.32,0,0,1,.12,1.64,7.91,7.91,0,0,1,1-1.31A7.61,7.61,0,0,1,153,10.78a7.07,7.07,0,0,1,4-1.18,6.16,6.16,0,0,1,5,2,8.85,8.85,0,0,1,1.62,5.78V29.88a9.18,9.18,0,0,1-1,.12c-.36,0-.68,0-1,0s-.6,0-.95,0a9.19,9.19,0,0,1-.95-.12V18.37a7.52,7.52,0,0,0-.85-4A3,3,0,0,0,156.26,13a5.46,5.46,0,0,0-2,.39,4.55,4.55,0,0,0-1.7,1.2,6,6,0,0,0-1.18,2.11,9.61,9.61,0,0,0-.45,3.11v10a9.17,9.17,0,0,1-.95.12c-.35,0-.66,0-.95,0s-.61,0-1,0a9.14,9.14,0,0,1-1-.12Z" transform="translate(-0.67 -0.91)"/><path class="cls-2" d="M170.13,13.12h-3l-.15-.54,6.65-7.42h.31v4.91h5a6.45,6.45,0,0,1,.15,1.47c0,.28,0,.55,0,.81s-.06.52-.12.77h-5v9a19.64,19.64,0,0,0,.13,2.59,3.82,3.82,0,0,0,.46,1.49,1.58,1.58,0,0,0,.89.7,4.83,4.83,0,0,0,1.41.17,7.52,7.52,0,0,0,1.24-.1q.58-.1,1-.21a6.1,6.1,0,0,1,.33,1.58q.06.81.06,1.43a12.7,12.7,0,0,1-1.62.29,16.34,16.34,0,0,1-1.82.1,6.43,6.43,0,0,1-4.35-1.35q-1.56-1.35-1.57-4.48Z" transform="translate(-0.67 -0.91)"/><path class="cls-2" d="M186.09,20.92a6.47,6.47,0,0,0,1.68,4.75,6.68,6.68,0,0,0,4.73,1.51,14.2,14.2,0,0,0,5.22-1,5.84,5.84,0,0,1,.5,1.41,9.29,9.29,0,0,1,.23,1.64,13,13,0,0,1-2.8.81,19.51,19.51,0,0,1-3.38.27,12.75,12.75,0,0,1-4.64-.75,8.33,8.33,0,0,1-3.19-2.12,8.41,8.41,0,0,1-1.84-3.25,13.87,13.87,0,0,1-.58-4.12A14.6,14.6,0,0,1,182.6,16a9.25,9.25,0,0,1,1.72-3.32,8.3,8.3,0,0,1,2.92-2.24,9.64,9.64,0,0,1,4.15-.83,8.68,8.68,0,0,1,3.59.7,7.31,7.31,0,0,1,2.59,1.91,8.3,8.3,0,0,1,1.58,2.9,11.87,11.87,0,0,1,.54,3.65q0,.54,0,1.14t-.08,1Zm9.81-2.86a7.29,7.29,0,0,0-.29-2.07,5.23,5.23,0,0,0-.85-1.72,4.13,4.13,0,0,0-1.43-1.18,4.5,4.5,0,0,0-2.07-.44,4.55,4.55,0,0,0-3.61,1.43,7,7,0,0,0-1.53,4Z" transform="translate(-0.67 -0.91)"/></g><g id="Hotel_Zante" data-name="Hotel Zante" class="cls-1"><path class="cls-2" d="M18.9,30.54q-.52,0-1.06,0a9.77,9.77,0,0,1-1-.12.5.5,0,0,1-.41-.49V17.52H5.61V29.88a.5.5,0,0,1-.42.49q-.48.08-1,.12a14.25,14.25,0,0,1-2.12,0,9.77,9.77,0,0,1-1-.12.5.5,0,0,1-.41-.49V2.1a.5.5,0,0,1,.42-.49q.48-.08,1-.12a13.64,13.64,0,0,1,2.09,0q.53,0,1,.12a.5.5,0,0,1,.42.49V13H16.43V2.1a.5.5,0,0,1,.41-.49,9.81,9.81,0,0,1,1-.12,14,14,0,0,1,2.1,0q.55,0,1,.12a.5.5,0,0,1,.42.49V29.88a.5.5,0,0,1-.41.49,9.84,9.84,0,0,1-1,.12C19.63,30.52,19.27,30.54,18.9,30.54Zm-1.47-1.08.48,0a13.3,13.3,0,0,0,2,0l.46,0V2.54l-.52-.05a13,13,0,0,0-2,0l-.47,0v11a.5.5,0,0,1-.5.5H5.11a.5.5,0,0,1-.5-.5v-11l-.5-.05a12.77,12.77,0,0,0-1.93,0l-.5.05V29.45l.48,0a13.42,13.42,0,0,0,2,0l.49,0V17a.5.5,0,0,1,.5-.5H16.93a.5.5,0,0,1,.5.5Z" transform="translate(-0.67 -0.91)"/><path class="cls-2" d="M35.4,30.85A10.25,10.25,0,0,1,31.14,30a8.57,8.57,0,0,1-3.08-2.32,9.62,9.62,0,0,1-1.81-3.46A14.93,14.93,0,0,1,25.66,20a15,15,0,0,1,.58-4.24,9.62,9.62,0,0,1,1.81-3.46A8.79,8.79,0,0,1,31.13,10,10,10,0,0,1,35.4,9.1a10,10,0,0,1,4.27.86,8.8,8.8,0,0,1,3.07,2.34,9.63,9.63,0,0,1,1.81,3.46A14.94,14.94,0,0,1,45.13,20a14.93,14.93,0,0,1-.58,4.24,9.64,9.64,0,0,1-1.81,3.46A8.58,8.58,0,0,1,39.66,30,10.25,10.25,0,0,1,35.4,30.85Zm0-20.75a9.05,9.05,0,0,0-3.85.76,7.8,7.8,0,0,0-2.73,2.07A8.63,8.63,0,0,0,27.2,16a14,14,0,0,0-.54,4,13.94,13.94,0,0,0,.54,4,8.63,8.63,0,0,0,1.62,3.11,7.58,7.58,0,0,0,2.72,2,9.26,9.26,0,0,0,3.85.75,9.26,9.26,0,0,0,3.85-.75,7.59,7.59,0,0,0,2.72-2,8.62,8.62,0,0,0,1.62-3.11,13.94,13.94,0,0,0,.54-4,14,14,0,0,0-.54-4A8.62,8.62,0,0,0,42,12.93a7.8,7.8,0,0,0-2.73-2.07A9.05,9.05,0,0,0,35.4,10.1Zm0,17.7a4.83,4.83,0,0,1-4.34-2.16A10.32,10.32,0,0,1,29.72,20a10.22,10.22,0,0,1,1.34-5.63,4.84,4.84,0,0,1,4.34-2.14,4.89,4.89,0,0,1,4.36,2.14A10.11,10.11,0,0,1,41.12,20a10.2,10.2,0,0,1-1.36,5.65A4.88,4.88,0,0,1,35.4,27.8Zm0-14.57a3.85,3.85,0,0,0-3.5,1.69A9.28,9.28,0,0,0,30.72,20a9.37,9.37,0,0,0,1.17,5.1,3.84,3.84,0,0,0,3.5,1.71,3.89,3.89,0,0,0,3.52-1.71A9.25,9.25,0,0,0,40.12,20a9.16,9.16,0,0,0-1.19-5.07A3.9,3.9,0,0,0,35.4,13.23Z" transform="translate(-0.67 -0.91)"/><path class="cls-2" d="M56.3,30.69a6.94,6.94,0,0,1-4.67-1.47c-1.15-1-1.74-2.63-1.74-4.86V13.62H47.38a.5.5,0,0,1-.48-.36l-.16-.54a.5.5,0,0,1,.11-.47L53.5,4.82a.5.5,0,0,1,.37-.17h.31a.5.5,0,0,1,.5.5V9.56H59.2a.5.5,0,0,1,.49.39,7,7,0,0,1,.17,1.58c0,.3,0,.59,0,.86s-.07.55-.12.82a.5.5,0,0,1-.49.4H54.68v8.54a19.19,19.19,0,0,0,.13,2.52A3.37,3.37,0,0,0,55.2,26a1.09,1.09,0,0,0,.61.48,6.09,6.09,0,0,0,2.42.06q.56-.09,1-.2a.5.5,0,0,1,.59.32,6.62,6.62,0,0,1,.35,1.71c0,.55.06,1,.06,1.46a.5.5,0,0,1-.38.49,13.48,13.48,0,0,1-1.69.3A17,17,0,0,1,56.3,30.69ZM47.86,12.62h2.53a.5.5,0,0,1,.5.5V24.36c0,1.92.47,3.3,1.39,4.1a6,6,0,0,0,4,1.23,15.9,15.9,0,0,0,1.76-.09c.4,0,.79-.11,1.17-.19,0-.3,0-.64-.05-1a5.66,5.66,0,0,0-.17-1l-.62.12a8.09,8.09,0,0,1-1.32.1,5.28,5.28,0,0,1-1.56-.2,2.08,2.08,0,0,1-1.16-.91,4.26,4.26,0,0,1-.54-1.68,20.14,20.14,0,0,1-.14-2.66v-9a.5.5,0,0,1,.5-.5h4.6c0-.11,0-.22,0-.32s0-.5,0-.76a6.57,6.57,0,0,0-.07-1H54.18a.5.5,0,0,1-.5-.5V6.12Z" transform="translate(-0.67 -0.91)"/><path class="cls-2" d="M72.53,30.85a13.32,13.32,0,0,1-4.82-.79,8.64,8.64,0,0,1-5.32-5.69,14.43,14.43,0,0,1-.6-4.26,15.16,15.16,0,0,1,.58-4.26,9.8,9.8,0,0,1,1.81-3.5A8.84,8.84,0,0,1,67.28,10a10.18,10.18,0,0,1,4.37-.88,9.22,9.22,0,0,1,3.8.74,7.84,7.84,0,0,1,2.76,2A8.85,8.85,0,0,1,79.89,15a12.42,12.42,0,0,1,.56,3.8c0,.37,0,.76,0,1.17s-.05.75-.08,1a.5.5,0,0,1-.5.46h-13a5.67,5.67,0,0,0,1.5,3.89,6.23,6.23,0,0,0,4.39,1.37,13.76,13.76,0,0,0,5-.93.5.5,0,0,1,.62.23A6.37,6.37,0,0,1,79,27.51a9.76,9.76,0,0,1,.24,1.73.5.5,0,0,1-.3.48,13.5,13.5,0,0,1-2.91.84A20.1,20.1,0,0,1,72.53,30.85ZM71.64,10.1a9.19,9.19,0,0,0-3.94.78A7.85,7.85,0,0,0,65,13a8.81,8.81,0,0,0-1.63,3.15,14.14,14.14,0,0,0-.54,4,13.44,13.44,0,0,0,.56,4,7.65,7.65,0,0,0,4.73,5.05,12.32,12.32,0,0,0,4.46.72,19.16,19.16,0,0,0,3.29-.26,12.85,12.85,0,0,0,2.36-.65,8.89,8.89,0,0,0-.2-1.2,6.23,6.23,0,0,0-.27-.89,14.83,14.83,0,0,1-5,.84A7.17,7.17,0,0,1,67.69,26a7,7,0,0,1-1.84-5.1.5.5,0,0,1,.5-.51h13q0-.26,0-.56,0-.58,0-1.11a11.42,11.42,0,0,0-.52-3.5,7.85,7.85,0,0,0-1.49-2.73A6.84,6.84,0,0,0,75,10.75,8.23,8.23,0,0,0,71.64,10.1Zm4.52,8.46H66.39a.5.5,0,0,1-.5-.55,7.51,7.51,0,0,1,1.65-4.26,5.68,5.68,0,0,1,6.28-1.1A4.65,4.65,0,0,1,75.42,14a5.75,5.75,0,0,1,.93,1.88,7.83,7.83,0,0,1,.31,2.21A.5.5,0,0,1,76.16,18.56Zm-9.21-1h8.69a6.7,6.7,0,0,0-.25-1.43,4.76,4.76,0,0,0-.77-1.56,3.66,3.66,0,0,0-1.26-1,4.7,4.7,0,0,0-5.08.87A6.15,6.15,0,0,0,67,17.56Z" transform="translate(-0.67 -0.91)"/><path class="cls-2" d="M90.27,30.66A8.28,8.28,0,0,1,88,30.37a5,5,0,0,1-1.89-1,4.7,4.7,0,0,1-1.3-1.86,7.41,7.41,0,0,1-.46-2.78V1.56a.5.5,0,0,1,.41-.49,9.77,9.77,0,0,1,1-.12,12.14,12.14,0,0,1,2,0,9.8,9.8,0,0,1,1,.12.5.5,0,0,1,.41.49V23.9a5.49,5.49,0,0,0,.17,1.55,1.82,1.82,0,0,0,.4.74,1,1,0,0,0,.52.29,5.27,5.27,0,0,0,1.59,0,4.42,4.42,0,0,0,.68-.1.5.5,0,0,1,.6.36,12.32,12.32,0,0,1,.36,3.06.5.5,0,0,1-.33.47,5.63,5.63,0,0,1-1.44.28Q90.94,30.66,90.27,30.66ZM85.4,2V24.75a6.43,6.43,0,0,0,.39,2.4,3.71,3.71,0,0,0,1,1.47,4,4,0,0,0,1.51.79,9.71,9.71,0,0,0,3.35.2,5.36,5.36,0,0,0,.85-.12,11.41,11.41,0,0,0-.22-2l-.33,0a6,6,0,0,1-1.89-.07,2,2,0,0,1-1-.56,2.77,2.77,0,0,1-.65-1.15,6.32,6.32,0,0,1-.22-1.85V2l-.48,0a11.32,11.32,0,0,0-1.82,0Z" transform="translate(-0.67 -0.91)"/><path class="cls-2" d="M122.53,30.38H103.71a.5.5,0,0,1-.42-.22l-.23-.35a.5.5,0,0,1,0-.53L116.6,6H105.22a.5.5,0,0,1-.49-.39,6.28,6.28,0,0,1-.13-.88c0-.32,0-.63,0-.93s0-.61,0-.93a7.93,7.93,0,0,1,.12-.91.5.5,0,0,1,.49-.4h18a.5.5,0,0,1,.4.19l.27.35a.5.5,0,0,1,0,.56L110.38,25.95h12.15a.5.5,0,0,1,.49.39,6.76,6.76,0,0,1,.13.9q0,.51,0,.95c0,.3,0,.61,0,.93A6.7,6.7,0,0,1,123,30,.5.5,0,0,1,122.53,30.38Zm-18.38-1h18c0-.11,0-.23,0-.35,0-.29,0-.58,0-.85s0-.56,0-.87c0-.13,0-.25,0-.37h-12.6a.5.5,0,0,1-.43-.75L122.87,2.6H105.64c0,.13,0,.26,0,.39,0,.3,0,.58,0,.85s0,.55,0,.85c0,.13,0,.24,0,.35h11.83a.5.5,0,0,1,.43.75Z" transform="translate(-0.67 -0.91)"/><path class="cls-2" d="M134.08,30.85a15.91,15.91,0,0,1-3.53-.36,7.49,7.49,0,0,1-2.77-1.2,5.71,5.71,0,0,1-1.8-2.16,7.15,7.15,0,0,1-.63-3.12,6.41,6.41,0,0,1,2.72-5.41,8.71,8.71,0,0,1,2.83-1.31,12.69,12.69,0,0,1,3.3-.42c.83,0,1.52,0,2.06.06l.8.07v-.17a3.34,3.34,0,0,0-1-2.77,5,5,0,0,0-3.06-.79,13.81,13.81,0,0,0-2.44.21,18.82,18.82,0,0,0-2.24.55.5.5,0,0,1-.58-.23,6.54,6.54,0,0,1-.8-3.3.5.5,0,0,1,.35-.48,18.42,18.42,0,0,1,3-.68,21.69,21.69,0,0,1,3.13-.24,9.18,9.18,0,0,1,6.2,1.88c1.45,1.27,2.18,3.28,2.18,6v12.4a.5.5,0,0,1-.39.49c-.9.21-2,.42-3.31.64A24.16,24.16,0,0,1,134.08,30.85Zm.12-13a11.7,11.7,0,0,0-3,.39,7.72,7.72,0,0,0-2.5,1.16,5.41,5.41,0,0,0-2.3,4.6,6.15,6.15,0,0,0,.53,2.68,4.73,4.73,0,0,0,1.49,1.78,6.51,6.51,0,0,0,2.41,1,19.69,19.69,0,0,0,7.17,0c1.09-.19,2.06-.37,2.87-.54V17c0-2.41-.62-4.18-1.84-5.25a8.24,8.24,0,0,0-5.54-1.63,20.75,20.75,0,0,0-3,.23,18.06,18.06,0,0,0-2.46.53,5.61,5.61,0,0,0,.48,2.09,20.06,20.06,0,0,1,2-.46,14.84,14.84,0,0,1,2.62-.22,6,6,0,0,1,3.67,1,4.25,4.25,0,0,1,1.35,3.57v.73a.5.5,0,0,1-.17.38.49.49,0,0,1-.4.12c-.35,0-.78-.09-1.3-.13S135,17.87,134.2,17.87ZM134,27.76a15,15,0,0,1-1.52-.08,4.18,4.18,0,0,1-1.6-.48A3.43,3.43,0,0,1,129.69,26a3.81,3.81,0,0,1-.51-2.09,3.58,3.58,0,0,1,1.47-3.11,6.79,6.79,0,0,1,3.94-1c.42,0,.94,0,1.55.08s1.1.1,1.49.16a.5.5,0,0,1,.43.5v6.3a.5.5,0,0,1-.37.48,11.47,11.47,0,0,1-1.76.3A18.69,18.69,0,0,1,134,27.76Zm.54-6.92a5.85,5.85,0,0,0-3.36.8,2.6,2.6,0,0,0-1,2.3,2.86,2.86,0,0,0,.34,1.54,2.41,2.41,0,0,0,.88.84,3.16,3.16,0,0,0,1.22.37,15.15,15.15,0,0,0,3.2,0,11.32,11.32,0,0,0,1.23-.19V21l-1-.1C135.48,20.87,135,20.84,134.59,20.84Z" transform="translate(-0.67 -0.91)"/><path class="cls-2" d="M161.71,30.54q-.44,0-1,0a9.78,9.78,0,0,1-1-.12.5.5,0,0,1-.41-.49V18.37a7.11,7.11,0,0,0-.77-3.76,2.51,2.51,0,0,0-2.29-1.07,5,5,0,0,0-1.86.35A4.07,4.07,0,0,0,152.89,15a5.51,5.51,0,0,0-1.08,1.93,9.17,9.17,0,0,0-.42,2.95v10a.5.5,0,0,1-.41.49,9.76,9.76,0,0,1-1,.12,12.7,12.7,0,0,1-2,0,9.75,9.75,0,0,1-1-.12.5.5,0,0,1-.41-.49V10.06a.5.5,0,0,1,.41-.49q.45-.08.87-.12a9.22,9.22,0,0,1,1.72,0q.38,0,.83.12a.5.5,0,0,1,.4.39c.08.4.16.93.24,1.61l0,.28.2-.23a8.14,8.14,0,0,1,1.46-1.26,7.67,7.67,0,0,1,1.9-.91A7.57,7.57,0,0,1,157,9.1a6.66,6.66,0,0,1,5.41,2.13,9.36,9.36,0,0,1,1.74,6.1V29.88a.5.5,0,0,1-.41.49,9.79,9.79,0,0,1-1,.12Q162.15,30.54,161.71,30.54Zm-1.39-1.08.48,0a11.7,11.7,0,0,0,1.84,0l.5,0V17.33a8.42,8.42,0,0,0-1.51-5.46A5.72,5.72,0,0,0,157,10.1a6.59,6.59,0,0,0-2,.3,6.67,6.67,0,0,0-1.65.79,7.17,7.17,0,0,0-1.28,1.1,7.44,7.44,0,0,0-.92,1.23.5.5,0,0,1-.93-.25,14,14,0,0,0-.11-1.58q-.08-.7-.16-1.19l-.42-.05a8.1,8.1,0,0,0-1.52,0l-.38,0v19l.5,0a11.71,11.71,0,0,0,1.84,0l.48,0V19.84a10.14,10.14,0,0,1,.47-3.27,6.5,6.5,0,0,1,1.28-2.28A5.08,5.08,0,0,1,154,13a6,6,0,0,1,2.23-.42,3.48,3.48,0,0,1,3.12,1.52,7.9,7.9,0,0,1,.93,4.31Z" transform="translate(-0.67 -0.91)"/><path class="cls-2" d="M176,30.69a6.94,6.94,0,0,1-4.67-1.47c-1.15-1-1.74-2.63-1.74-4.86V13.62h-2.51a.5.5,0,0,1-.48-.36l-.15-.54a.5.5,0,0,1,.11-.47l6.65-7.42a.5.5,0,0,1,.37-.17h.31a.5.5,0,0,1,.5.5V9.56h4.52a.5.5,0,0,1,.49.39,7,7,0,0,1,.17,1.58c0,.3,0,.59,0,.86s-.07.55-.12.82a.5.5,0,0,1-.49.4h-4.52v8.54a19.31,19.31,0,0,0,.13,2.52,3.37,3.37,0,0,0,.39,1.29,1.08,1.08,0,0,0,.61.49,6.11,6.11,0,0,0,2.42.06c.37-.06.71-.13,1-.2a.5.5,0,0,1,.59.32,6.6,6.6,0,0,1,.36,1.71q.06.83.06,1.46a.5.5,0,0,1-.38.49,13.44,13.44,0,0,1-1.69.3A17,17,0,0,1,176,30.69ZM167.6,12.62h2.53a.5.5,0,0,1,.5.5V24.36c0,1.92.47,3.3,1.39,4.1a6,6,0,0,0,4,1.23,15.88,15.88,0,0,0,1.76-.09c.4,0,.79-.11,1.17-.19,0-.3,0-.64-.05-1a5.56,5.56,0,0,0-.17-1l-.62.12a8.09,8.09,0,0,1-1.32.1,5.26,5.26,0,0,1-1.56-.2,2.07,2.07,0,0,1-1.16-.91,4.24,4.24,0,0,1-.54-1.68,20.21,20.21,0,0,1-.14-2.66v-9a.5.5,0,0,1,.5-.5h4.6c0-.11,0-.21,0-.32a7.6,7.6,0,0,0,0-.76,6.56,6.56,0,0,0-.07-1h-4.61a.5.5,0,0,1-.5-.5V6.12Z" transform="translate(-0.67 -0.91)"/><path class="cls-2" d="M192.28,30.85a13.3,13.3,0,0,1-4.82-.79,8.65,8.65,0,0,1-5.32-5.69,14.42,14.42,0,0,1-.6-4.26,15.16,15.16,0,0,1,.58-4.26,9.78,9.78,0,0,1,1.81-3.5A8.82,8.82,0,0,1,187,10a10.18,10.18,0,0,1,4.37-.88,9.22,9.22,0,0,1,3.8.74,7.84,7.84,0,0,1,2.76,2A8.84,8.84,0,0,1,199.63,15a12.41,12.41,0,0,1,.57,3.8c0,.37,0,.76,0,1.17s-.05.75-.08,1a.5.5,0,0,1-.5.46h-13a5.68,5.68,0,0,0,1.5,3.89,6.23,6.23,0,0,0,4.39,1.37,13.77,13.77,0,0,0,5-.93.5.5,0,0,1,.62.23,6.39,6.39,0,0,1,.55,1.53,9.88,9.88,0,0,1,.24,1.73.5.5,0,0,1-.3.48,13.53,13.53,0,0,1-2.91.84A20.11,20.11,0,0,1,192.28,30.85Zm-.89-20.75a9.19,9.19,0,0,0-3.94.78A7.84,7.84,0,0,0,184.7,13a8.81,8.81,0,0,0-1.63,3.15,14.18,14.18,0,0,0-.54,4,13.45,13.45,0,0,0,.56,4,8,8,0,0,0,1.73,3.05,7.87,7.87,0,0,0,3,2,12.32,12.32,0,0,0,4.46.72,19.16,19.16,0,0,0,3.29-.26,12.88,12.88,0,0,0,2.36-.65,9,9,0,0,0-.19-1.2,6.21,6.21,0,0,0-.28-.89,14.82,14.82,0,0,1-5,.84A7.18,7.18,0,0,1,187.43,26a7,7,0,0,1-1.84-5.1.5.5,0,0,1,.5-.51h13c0-.17,0-.36,0-.56q0-.58,0-1.11a11.43,11.43,0,0,0-.52-3.5,7.84,7.84,0,0,0-1.49-2.73,6.84,6.84,0,0,0-2.41-1.78A8.23,8.23,0,0,0,191.39,10.1Zm4.52,8.46h-9.78a.5.5,0,0,1-.5-.55,7.5,7.5,0,0,1,1.65-4.26,5.69,5.69,0,0,1,6.28-1.1,4.64,4.64,0,0,1,1.6,1.32,5.75,5.75,0,0,1,.93,1.88,7.79,7.79,0,0,1,.31,2.21A.5.5,0,0,1,195.91,18.56Zm-9.21-1h8.69a6.73,6.73,0,0,0-.25-1.43,4.77,4.77,0,0,0-.77-1.56,3.66,3.66,0,0,0-1.26-1,4.7,4.7,0,0,0-5.08.87A6.14,6.14,0,0,0,186.7,17.56Z" transform="translate(-0.67 -0.91)"/></g><g id="_" data-name=" " class="cls-1"><path class="cls-3" d="M163.91,38.93a.31.31,0,0,1-.11.21l-1.57,1.53.37,2.16a.49.49,0,0,1,0,.09.24.24,0,0,1,0,.15.15.15,0,0,1-.13.06.35.35,0,0,1-.17-.05l-1.94-1-1.94,1a.37.37,0,0,1-.17.05.16.16,0,0,1-.14-.06.25.25,0,0,1,0-.15.62.62,0,0,1,0-.09l.37-2.16-1.57-1.53a.33.33,0,0,1-.11-.21c0-.11.08-.17.24-.2l2.16-.32,1-2c.05-.12.13-.18.21-.18s.16.06.21.18l1,2,2.17.32C163.83,38.76,163.91,38.83,163.91,38.93Z" transform="translate(-0.67 -0.91)"/><path class="cls-3" d="M173,38.93a.31.31,0,0,1-.11.21l-1.56,1.53.37,2.16a.62.62,0,0,1,0,.09.25.25,0,0,1,0,.15.15.15,0,0,1-.13.06.35.35,0,0,1-.17-.05l-1.94-1-1.94,1a.37.37,0,0,1-.17.05.16.16,0,0,1-.14-.06.26.26,0,0,1,0-.15.66.66,0,0,1,0-.09l.37-2.16-1.57-1.53a.33.33,0,0,1-.11-.21c0-.11.08-.17.24-.2l2.17-.32,1-2c.05-.12.13-.18.21-.18s.16.06.21.18l1,2,2.17.32C172.93,38.76,173,38.83,173,38.93Z" transform="translate(-0.67 -0.91)"/><path class="cls-3" d="M182.12,38.93a.31.31,0,0,1-.11.21l-1.57,1.53.37,2.16s0,0,0,.09a.26.26,0,0,1,0,.15.15.15,0,0,1-.13.06.35.35,0,0,1-.17-.05l-1.94-1-1.94,1a.37.37,0,0,1-.17.05.16.16,0,0,1-.14-.06.25.25,0,0,1,0-.15.71.71,0,0,1,0-.09l.37-2.16-1.57-1.53a.33.33,0,0,1-.11-.21c0-.11.08-.17.24-.2l2.17-.32,1-2c.05-.12.13-.18.21-.18s.16.06.21.18l1,2,2.16.32C182,38.76,182.12,38.83,182.12,38.93Z" transform="translate(-0.67 -0.91)"/><path class="cls-3" d="M191.23,38.93a.31.31,0,0,1-.11.21l-1.57,1.53.37,2.16a.65.65,0,0,1,0,.09.25.25,0,0,1,0,.15.15.15,0,0,1-.13.06.35.35,0,0,1-.17-.05l-1.94-1-1.94,1a.37.37,0,0,1-.17.05.15.15,0,0,1-.13-.06.24.24,0,0,1,0-.15.66.66,0,0,1,0-.09l.37-2.16-1.57-1.53a.33.33,0,0,1-.11-.21c0-.11.08-.17.24-.2l2.16-.32,1-2c.05-.12.13-.18.21-.18s.16.06.21.18l1,2,2.17.32C191.15,38.76,191.23,38.83,191.23,38.93Z" transform="translate(-0.67 -0.91)"/><path class="cls-3" d="M200.34,38.93a.31.31,0,0,1-.11.21l-1.57,1.53.37,2.16a.49.49,0,0,1,0,.09.24.24,0,0,1,0,.15.15.15,0,0,1-.13.06.35.35,0,0,1-.17-.05l-1.94-1-1.94,1a.37.37,0,0,1-.17.05.16.16,0,0,1-.14-.06.25.25,0,0,1,0-.15.62.62,0,0,1,0-.09l.37-2.16-1.57-1.53a.33.33,0,0,1-.11-.21c0-.11.08-.17.24-.2l2.16-.32,1-2c.05-.12.13-.18.21-.18s.16.06.21.18l1,2,2.17.32C200.26,38.76,200.34,38.83,200.34,38.93Z" transform="translate(-0.67 -0.91)"/></g></svg>