<?xml version="1.0" encoding="iso-8859-1"?>
<!-- Generator: Adobe Illustrator 19.0.0, SVG Export Plug-In . SVG Version: 6.00 Build 0)  -->
<svg version="1.1" id="Capa_1" xmlns="http://www.w3.org/2000/svg" xmlns:xlink="http://www.w3.org/1999/xlink" x="0px" y="0px"
	 viewBox="0 0 512 512" style="enable-background:new 0 0 512 512;" xml:space="preserve">
<g>
	<g>
		<path d="M154.848,103.968c-0.513-0.477-1.021-0.948-1.518-1.422c-4.737-4.518-6.103-5.997-6.103-9.963
			c0-3.965,1.366-5.443,6.102-9.958c1.927-1.838,4.112-3.921,6.198-6.419c2.691-3.223,2.26-8.018-0.964-10.709
			c-3.223-2.691-8.018-2.261-10.709,0.964c-1.531,1.834-3.225,3.449-5.018,5.159c-5.317,5.069-10.815,10.311-10.815,20.964
			c0,10.651,5.498,15.895,10.815,20.965c0.543,0.518,1.099,1.035,1.66,1.556c4.883,4.538,8.412,7.817,8.412,15.848
			c0,8.855-4.443,13.742-9.587,19.401c-0.49,0.539-0.975,1.072-1.45,1.604c-2.801,3.128-2.536,7.934,0.592,10.736
			c1.451,1.299,3.263,1.939,5.069,1.939c2.087,0,4.165-0.854,5.666-2.531c0.45-0.503,0.91-1.008,1.374-1.518
			c5.714-6.286,13.542-14.895,13.542-29.629C168.114,116.297,160.446,109.171,154.848,103.968z"/>
	</g>
</g>
<g>
	<g>
		<path d="M260.781,69.712c-0.513-0.477-1.021-0.948-1.518-1.422c-4.737-4.518-6.103-5.997-6.103-9.963
			c0-3.964,1.366-5.442,6.102-9.958c1.927-1.838,4.112-3.921,6.198-6.419c2.691-3.223,2.26-8.018-0.964-10.709
			c-3.223-2.691-8.017-2.26-10.709,0.964c-1.531,1.834-3.225,3.449-5.019,5.159c-5.317,5.07-10.814,10.311-10.814,20.963
			s5.498,15.895,10.815,20.966c0.543,0.518,1.099,1.035,1.66,1.556c4.883,4.538,8.412,7.817,8.412,15.849
			c0,8.855-4.443,13.741-9.587,19.4c-0.49,0.539-0.975,1.072-1.45,1.604c-2.801,3.128-2.536,7.934,0.592,10.736
			c1.451,1.299,3.263,1.939,5.069,1.939c2.087,0,4.165-0.854,5.666-2.531c0.45-0.503,0.91-1.008,1.374-1.518
			c5.715-6.286,13.542-14.895,13.542-29.629C274.047,82.04,266.379,74.915,260.781,69.712z"/>
	</g>
</g>
<g>
	<g>
		<path d="M366.713,103.968c-0.513-0.477-1.021-0.948-1.518-1.422c-4.737-4.518-6.103-5.997-6.103-9.963
			c0-3.965,1.366-5.443,6.102-9.958c1.927-1.838,4.112-3.921,6.198-6.419c2.691-3.223,2.26-8.018-0.964-10.709
			c-3.222-2.691-8.018-2.261-10.709,0.964c-1.531,1.834-3.225,3.449-5.018,5.159c-5.317,5.069-10.815,10.311-10.815,20.964
			c0,10.651,5.498,15.895,10.815,20.965c0.543,0.518,1.099,1.035,1.66,1.556c4.883,4.538,8.412,7.817,8.412,15.848
			c0,8.855-4.443,13.742-9.587,19.401c-0.49,0.539-0.975,1.072-1.45,1.604c-2.801,3.128-2.536,7.934,0.592,10.736
			c1.451,1.299,3.263,1.939,5.069,1.939c2.087,0,4.165-0.854,5.666-2.531c0.45-0.503,0.91-1.008,1.374-1.518
			c5.714-6.286,13.542-14.895,13.542-29.629C379.979,116.297,372.311,109.171,366.713,103.968z"/>
	</g>
</g>
<g>
	<g>
		<path d="M504.397,420.093H7.603c-4.199,0-7.603,3.404-7.603,7.603v18.236c0,20.178,16.415,36.594,36.593,36.594h438.814
			c20.178,0,36.593-16.416,36.593-36.594v-18.236C512,423.497,508.596,420.093,504.397,420.093z M496.795,445.932L496.795,445.932
			c-0.001,11.793-9.596,21.388-21.389,21.388H36.593c-11.793,0-21.387-9.595-21.387-21.388v-10.633h481.589V445.932z"/>
	</g>
</g>
<g>
	<g>
		<path d="M394.186,256.353c-30.595-29.463-69.109-48.06-110.55-53.8l14.736-14.736c4.456-4.456,5.778-11.098,3.366-16.92
			c-2.412-5.823-8.042-9.585-14.345-9.585h-62.784c-6.303,0-11.933,3.762-14.345,9.585c-2.412,5.822-1.09,12.464,3.366,16.92
			l14.736,14.737c-41.483,5.745-80.028,24.372-110.638,53.885c-37.216,35.883-58.812,84.038-60.81,135.594
			c-0.162,4.196,3.108,7.729,7.303,7.892c0.1,0.003,0.2,0.005,0.299,0.005c4.063,0,7.434-3.213,7.592-7.308
			c1.844-47.615,21.792-92.092,56.169-125.238c31.986-30.841,73.355-48.812,117.422-51.24c0.805-0.044,1.607-0.084,2.405-0.119
			c0.948-0.04,1.896-0.076,2.846-0.102c0.456-0.013,0.904-0.02,1.356-0.03c1.229-0.024,2.458-0.044,3.69-0.044
			s2.46,0.02,3.689,0.044c0.45,0.009,0.898,0.017,1.353,0.03c0.951,0.026,1.901,0.062,2.849,0.102
			c0.795,0.034,1.595,0.074,2.398,0.118c44.03,2.425,85.373,20.369,117.349,51.163c34.363,33.093,54.336,77.512,56.24,125.075
			c0.168,4.195,3.7,7.442,7.901,7.293c4.196-0.168,7.461-3.705,7.293-7.901C453.01,340.272,431.387,292.179,394.186,256.353z
			 M263.879,200.805c-0.317-0.013-0.623-0.017-0.937-0.029c-0.901-0.031-1.802-0.063-2.705-0.082
			c-1.369-0.03-2.728-0.048-4.084-0.049c-0.051,0-0.102-0.002-0.153-0.002s-0.102,0.002-0.152,0.002
			c-1.356,0.001-2.715,0.018-4.084,0.049c-0.904,0.019-1.806,0.051-2.708,0.082c-0.313,0.011-0.618,0.016-0.934,0.028
			l-23.741-23.739c-0.113-0.113-0.151-0.151-0.069-0.349c0.082-0.198,0.136-0.198,0.296-0.198h62.784c0.16,0,0.215,0,0.297,0.198
			c0.082,0.197,0.044,0.236-0.07,0.349L263.879,200.805z"/>
	</g>
</g>
<g>
</g>
<g>
</g>
<g>
</g>
<g>
</g>
<g>
</g>
<g>
</g>
<g>
</g>
<g>
</g>
<g>
</g>
<g>
</g>
<g>
</g>
<g>
</g>
<g>
</g>
<g>
</g>
<g>
</g>
</svg>
