<?xml version="1.0" encoding="iso-8859-1"?>
<!-- Generator: Adobe Illustrator 18.0.0, SVG Export Plug-In . SVG Version: 6.00 Build 0)  -->
<!DOCTYPE svg PUBLIC "-//W3C//DTD SVG 1.1//EN" "http://www.w3.org/Graphics/SVG/1.1/DTD/svg11.dtd">
<svg version="1.1" id="Capa_1" xmlns="http://www.w3.org/2000/svg" xmlns:xlink="http://www.w3.org/1999/xlink" x="0px" y="0px"
	 viewBox="0 0 227.636 227.636" style="enable-background:new 0 0 227.636 227.636;" xml:space="preserve">
<path d="M223.061,0H4.575C2.049,0,0.001,2.048,0.001,4.574v218.488c0,2.526,2.048,4.574,4.574,4.574H137.83
	c2.526,0,4.573-2.048,4.573-4.574c0-2.526-2.047-4.574-4.573-4.574H9.149V111.881h63.798v43.849c0,2.526,2.048,4.574,4.574,4.574
	c2.526,0,4.574-2.048,4.574-4.574V59.96c0-2.526-2.048-4.574-4.574-4.574c-2.526,0-4.574,2.048-4.574,4.574v42.773H9.149V9.148
	h124.108v57.271c0,2.526,2.047,4.574,4.573,4.574h48.372c2.526,0,4.573-2.048,4.573-4.574c0-2.526-2.047-4.574-4.573-4.574h-43.799
	V9.148h76.085v142.009H137.83c-2.526,0-4.573,2.048-4.573,4.574c0,2.526,2.047,4.574,4.573,4.574h80.658v58.185h-32.286
	c-2.526,0-4.573,2.048-4.573,4.574c0,2.526,2.047,4.574,4.573,4.574h36.859c2.526,0,4.573-2.048,4.573-4.574V4.574
	C227.635,2.048,225.588,0,223.061,0z"/>
<g>
</g>
<g>
</g>
<g>
</g>
<g>
</g>
<g>
</g>
<g>
</g>
<g>
</g>
<g>
</g>
<g>
</g>
<g>
</g>
<g>
</g>
<g>
</g>
<g>
</g>
<g>
</g>
<g>
</g>
</svg>
