<?xml version="1.0" encoding="utf-8"?>
<!-- Generator: Adobe Illustrator 18.0.0, SVG Export Plug-In . SVG Version: 6.00 Build 0)  -->
<!DOCTYPE svg PUBLIC "-//W3C//DTD SVG 1.1//EN" "http://www.w3.org/Graphics/SVG/1.1/DTD/svg11.dtd">
<svg version="1.1" id="Layer_1" xmlns="http://www.w3.org/2000/svg" xmlns:xlink="http://www.w3.org/1999/xlink" x="0px" y="0px"
	 viewBox="0 0 56 5" enable-background="new 0 0 56 5" xml:space="preserve">
<path fill="#444444" d="M48.4,5c-2,0-3-1-4-1.9c-0.8-0.8-1.5-1.4-2.8-1.4s-2,0.6-2.8,1.4C37.8,4,36.8,5,34.8,5c-2,0-3-1-3.9-1.9
	C30,2.3,29.4,1.7,28,1.7c-1.4,0-2,0.6-2.8,1.4C24.2,4,23.2,5,21.2,5c-2,0-3-1-3.9-1.9c-0.8-0.8-1.5-1.4-2.8-1.4
	c-1.4,0-2,0.6-2.8,1.4C10.7,4,9.6,5,7.6,5c-2,0-3-1-3.9-1.9C2.8,2.3,2.2,1.7,0.8,1.7C0.4,1.7,0,1.3,0,0.9S0.4,0,0.8,0
	c2,0,3,1,3.9,1.9c0.8,0.8,1.5,1.4,2.8,1.4s2-0.6,2.8-1.4C11.4,1,12.4,0,14.4,0c2,0,3,1,3.9,1.9c0.8,0.8,1.5,1.4,2.8,1.4
	c1.4,0,2-0.6,2.8-1.4C25,1,26,0,28,0c2,0,3,1,3.9,1.9c0.8,0.8,1.5,1.4,2.8,1.4c1.4,0,2-0.6,2.8-1.4C38.5,1,39.6,0,41.6,0s3,1,4,1.9
	c0.8,0.8,1.5,1.4,2.8,1.4c1.4,0,2-0.6,2.8-1.4C52.1,1,53.2,0,55.2,0C55.6,0,56,0.4,56,0.9s-0.4,0.9-0.8,0.9c-1.4,0-2,0.6-2.8,1.4
	C51.4,4,50.4,5,48.4,5z"/>
</svg>
