<svg xmlns="http://www.w3.org/2000/svg" width="56" height="5" viewBox="0 0 56 5"><defs><style>.cls-1{fill:#606060;}</style></defs><title>Asset 1</title><g id="Layer_2" data-name="Layer 2"><g id="Layer_1-2" data-name="Layer 1"><g id="Layer_2-2" data-name="Layer 2"><g id="Layer_1-2-2" data-name="Layer 1-2"><path class="cls-1" d="M48.4,5a5.46,5.46,0,0,1-4-1.9,3.5,3.5,0,0,0-5.6,0,5.46,5.46,0,0,1-4,1.9,5.06,5.06,0,0,1-3.9-1.9A3.86,3.86,0,0,0,28,1.7a3.5,3.5,0,0,0-2.8,1.4,5.46,5.46,0,0,1-4,1.9,5.06,5.06,0,0,1-3.9-1.9,3.65,3.65,0,0,0-2.8-1.4,3.5,3.5,0,0,0-2.8,1.4A5.7,5.7,0,0,1,7.6,5,5.06,5.06,0,0,1,3.7,3.1,3.86,3.86,0,0,0,.8,1.7.86.86,0,0,1,0,.9,1,1,0,0,1,.8,0,5.06,5.06,0,0,1,4.7,1.9,3.65,3.65,0,0,0,7.5,3.3a3.65,3.65,0,0,0,2.8-1.4C11.4,1,12.4,0,14.4,0a5.06,5.06,0,0,1,3.9,1.9,3.65,3.65,0,0,0,2.8,1.4,3.5,3.5,0,0,0,2.8-1.4C25,1,26,0,28,0a5.06,5.06,0,0,1,3.9,1.9,3.65,3.65,0,0,0,2.8,1.4,3.5,3.5,0,0,0,2.8-1.4A5.7,5.7,0,0,1,41.6,0a5.46,5.46,0,0,1,4,1.9,3.65,3.65,0,0,0,2.8,1.4,3.5,3.5,0,0,0,2.8-1.4,5.28,5.28,0,0,1,4-1.9.88.88,0,0,1,.8.9.88.88,0,0,1-.8.9,3.5,3.5,0,0,0-2.8,1.4A5.79,5.79,0,0,1,48.4,5Z"/></g></g></g></g></svg>